<?xml version="1.0" encoding="utf-8"?>
<!-- Generator: Adobe Illustrator 16.0.0, SVG Export Plug-In . SVG Version: 6.00 Build 0)  -->
<!DOCTYPE svg PUBLIC "-//W3C//DTD SVG 1.1//EN" "http://www.w3.org/Graphics/SVG/1.1/DTD/svg11.dtd">
<svg version="1.1" id="Layer_1" xmlns="http://www.w3.org/2000/svg" xmlns:xlink="http://www.w3.org/1999/xlink" x="0px" y="0px"
	 width="283.958px" height="61.497px" viewBox="0 0 283.958 61.497" enable-background="new 0 0 283.958 61.497"
	 xml:space="preserve">
<g>
	<g>
		<path fill="#FFFFFF" d="M22.856,42.814c0-1.588-0.56-2.806-1.681-3.656c-1.12-0.85-3.137-1.745-6.05-2.688
			c-2.913-0.942-5.22-1.872-6.918-2.787C3.576,31.18,1.26,27.81,1.26,23.571c0-2.203,0.621-4.169,1.863-5.896
			c1.242-1.728,3.025-3.076,5.35-4.048c2.325-0.971,4.934-1.456,7.829-1.456c2.913,0,5.508,0.527,7.787,1.582
			c2.278,1.055,4.047,2.545,5.308,4.468c1.261,1.923,1.891,4.108,1.891,6.554h-8.403c0-1.867-0.588-3.318-1.765-4.355
			c-1.176-1.036-2.829-1.555-4.958-1.555c-2.054,0-3.651,0.435-4.79,1.303c-1.139,0.869-1.708,2.013-1.708,3.432
			c0,1.326,0.667,2.437,2.002,3.333c1.335,0.896,3.3,1.736,5.896,2.521c4.78,1.438,8.263,3.221,10.448,5.35
			c2.185,2.129,3.277,4.781,3.277,7.955c0,3.529-1.335,6.298-4.005,8.305c-2.67,2.008-6.265,3.012-10.784,3.012
			c-3.137,0-5.994-0.574-8.571-1.723c-2.577-1.148-4.542-2.722-5.896-4.72C0.677,45.633,0,43.318,0,40.685h8.431
			c0,4.5,2.689,6.75,8.066,6.75c1.998,0,3.558-0.406,4.678-1.219C22.296,45.404,22.856,44.27,22.856,42.814z"/>
		<path fill="#FFFFFF" d="M47.342,53.513h-8.403V12.731h8.403V53.513z"/>
		<path fill="#FFFFFF" d="M71.632,43.402l9.243-30.671h9.355L76.029,53.513h-8.767L53.118,12.731h9.327L71.632,43.402z"/>
		<path fill="#FFFFFF" d="M126.368,12.731v26.861c0,4.464-1.396,7.993-4.188,10.588c-2.792,2.596-6.605,3.894-11.441,3.894
			c-4.762,0-8.543-1.261-11.344-3.781c-2.801-2.521-4.229-5.984-4.286-10.393V12.731h8.403v26.917c0,2.671,0.64,4.617,1.918,5.84
			c1.279,1.224,3.049,1.836,5.309,1.836c4.724,0,7.123-2.484,7.198-7.451V12.731H126.368z"/>
		<path fill="#FFFFFF" d="M168.192,34.046c0,4.016-0.71,7.535-2.129,10.56c-1.419,3.025-3.449,5.36-6.092,7.003
			s-5.672,2.465-9.089,2.465c-3.38,0-6.396-0.812-9.047-2.438c-2.652-1.624-4.706-3.944-6.162-6.96
			c-1.457-3.016-2.195-6.484-2.213-10.405v-2.018c0-4.014,0.723-7.549,2.17-10.602s3.492-5.396,6.135-7.03
			c2.642-1.634,5.662-2.45,9.061-2.45s6.419,0.816,9.062,2.45c2.642,1.634,4.687,3.978,6.134,7.03s2.171,6.578,2.171,10.574V34.046z
			 M159.678,32.198c0-4.276-0.766-7.524-2.297-9.747s-3.716-3.334-6.555-3.334c-2.819,0-4.995,1.098-6.525,3.292
			c-1.532,2.194-2.307,5.411-2.325,9.649v1.988c0,4.164,0.766,7.395,2.297,9.691c1.53,2.297,3.734,3.445,6.61,3.445
			c2.819,0,4.985-1.106,6.498-3.319s2.278-5.438,2.297-9.677V32.198z"/>
		<path fill="#FFFFFF" d="M208.924,53.513h-8.403V36.035h-16.386v17.479h-8.402V12.731h8.402v16.526h16.386V12.731h8.403V53.513z"/>
		<path fill="#FFFFFF" d="M234.139,12.731h8.402v28.233c0,2.596-0.574,4.889-1.722,6.877c-1.148,1.988-2.769,3.525-4.86,4.607
			c-2.092,1.083-4.453,1.625-7.086,1.625c-4.313,0-7.675-1.098-10.084-3.291c-2.408-2.194-3.613-5.299-3.613-9.313h8.459
			c0,1.998,0.42,3.474,1.261,4.425c0.84,0.953,2.166,1.43,3.978,1.43c1.605,0,2.885-0.551,3.837-1.653
			c0.952-1.102,1.429-2.67,1.429-4.706V12.731z"/>
	</g>
	<rect x="251.146" y="13.059" fill="#FFEB3B" width="32.812" height="6.562"/>
	<rect x="251.146" y="46.498" fill="#FFEB3B" width="32.812" height="6.562"/>
	<rect x="251.146" y="29.841" fill="#FFEB3B" width="32.812" height="6.562"/>
</g>
</svg>
